P3
# feep.ppm
4 7
15
0  0  0    0  0  0    11 11 11   11 11 11
0  0  0    0  0  0    11 11 11   11 11 11
2  2  2    2  2  2    6  6  6   6  6  6
2  2  2    2  2  2    6  6  6   6  6  6
8  8  8    8  8  8   14 14 14    14 14 14
8  8  8    8  8  8   14 14 14    14 14 14
9  7  5    7  8 12   14 14 14    7  0 10
